<?xml version="1.0" encoding="utf-8"?>
<!-- Generator: Adobe Illustrator 24.0.2, SVG Export Plug-In . SVG Version: 6.00 Build 0)  -->
<svg version="1.1" id="Layer_1" xmlns="http://www.w3.org/2000/svg" xmlns:xlink="http://www.w3.org/1999/xlink" x="0px" y="0px"
	 viewBox="0 0 595.28 841.89" style="enable-background:new 0 0 595.28 841.89;" xml:space="preserve">
<style type="text/css">
	.st0{fill:#429CD6;}
	.st1{fill:#FFFFFF;stroke:#000000;stroke-width:2;stroke-miterlimit:10;}
	.st2{fill:none;stroke:#000000;stroke-width:2;stroke-miterlimit:10;}
	.st3{fill:none;stroke:#000000;stroke-width:3;stroke-miterlimit:10;}
	.st4{fill:none;stroke:#000000;stroke-miterlimit:10;}
	.st5{fill:#BCBCBC;}
	.st6{fill:#2D2D2D;}
</style>
<path class="st0" d="M298.44,178.42l-12.99,7.56l4.63-0.05v11.06c0.52,1.94,1.39,2.29,1.65,2.55c0.26,0.26,12.52,0,12.52,0
	s1.37-0.71,1.65-2.22c0.28-1.51,0.52-11.57,0.52-11.57l3.4-0.09L298.44,178.42z M298.37,193.02c-2.11,0-3.83-1.71-3.83-3.83
	s1.71-3.83,3.83-3.83c2.11,0,3.83,1.71,3.83,3.83S300.48,193.02,298.37,193.02z"/>
<line class="st1" x1="294.42" y1="237.73" x2="292.86" y2="260.83"/>
<line class="st1" x1="302.95" y1="238.3" x2="301.39" y2="261.4"/>
<line class="st2" x1="286.87" y1="244.68" x2="308.41" y2="244.68"/>
<line class="st2" x1="286.87" y1="254.31" x2="308.41" y2="254.31"/>
<path class="st3" d="M308.13,309.21c0,0-1.89-3.78-2.93-5.39c-1.04-1.61,0.66-10.2-7.75-10.2c-8.41,0-6.9,6.52-6.9,8.79
	s-3.4,6.8-3.4,6.8h6.76c0.24,2.07,1.98,3.69,4.11,3.69c2.13,0,3.87-1.61,4.11-3.69H308.13z"/>
<path class="st3" d="M304.63,376.3h-13.98c-2.39,0-4.35-1.96-4.35-4.35v-11.34c0-2.39,1.96-4.35,4.35-4.35h13.98
	c2.39,0,4.35,1.96,4.35,4.35v11.34C308.98,374.34,307.02,376.3,304.63,376.3z"/>
<polyline class="st3" points="286.87,358.44 297.17,367.61 308.41,357.5 "/>
<path class="st3" d="M290.17,438.14l-0.43-19.98c0,0,15.17-0.43,15.59,0c0.43,0.43,0,19.13,0,19.13l-7.65-5.81L290.17,438.14z"/>
<path class="st4" d="M306.5,498.24h-17.72c-0.86,0-1.56-0.7-1.56-1.56v-19.7c0-0.86,0.7-1.56,1.56-1.56h17.72
	c0.86,0,1.56,0.7,1.56,1.56v19.7C308.06,497.53,307.35,498.24,306.5,498.24z"/>
<line class="st4" x1="291.33" y1="481.94" x2="303.95" y2="481.94"/>
<line class="st4" x1="291.33" y1="487.04" x2="303.95" y2="487.04"/>
<line class="st4" x1="294.38" y1="491.29" x2="300.9" y2="491.29"/>
<circle class="st4" cx="297.64" cy="606.57" r="10.96"/>
<circle class="st5" cx="294.07" cy="548.34" r="12.69"/>
<circle class="st6" cx="294" cy="546.99" r="4.89"/>
<path class="st6" d="M294.07,561.02c2.87,0,5.51-0.97,7.64-2.58c-1.46-2.77-4.36-4.66-7.71-4.66c-3.32,0-6.2,1.85-7.67,4.58
	C288.47,560.03,291.15,561.02,294.07,561.02z"/>
</svg>
