<svg class="icon" style="width: 1em; height: 1em;vertical-align: middle;fill: currentColor;overflow: hidden;" viewBox="0 0 1024 1024" version="1.1" xmlns="http://www.w3.org/2000/svg"><path fill="#1DA1F2" d="M512 0c-282.784 0-512 229.216-512 512s229.216 512 512 512c282.784 0 512-229.216 512-512s-229.216-512-512-512zM512 944c-238.592 0-432-193.408-432-432s193.408-432 432-432c238.592 0 432 193.408 432 432s-193.408 432-432 432zM384 320c0 35.36-28.64 64-64 64s-64-28.64-64-64 28.64-64 64-64 64 28.64 64 64zM768 320c0 35.36-28.64 64-64 64s-64-28.64-64-64 28.64-64 64-64 64 28.64 64 64zM512 652c141.088 0 262.688-57.536 318.464-123.2-20.864 171.232-156.288 303.2-318.464 303.2-162.112 0-297.504-132.032-318.432-303.168 55.776 65.632 177.376 123.168 318.432 123.168z" /></svg>